<svg xmlns="http://www.w3.org/2000/svg" width="1600" height="900" viewBox="0 0 1600 900">
  <defs>
    <linearGradient id="bg" x1="0" y1="0" x2="1" y2="1">
      <stop offset="0%" stop-color="#041816"/>
      <stop offset="55%" stop-color="#073b36"/>
      <stop offset="100%" stop-color="#1f2c1d"/>
    </linearGradient>
    <linearGradient id="card" x1="0" y1="0" x2="1" y2="1">
      <stop offset="0%" stop-color="#ffffff" stop-opacity="0.14"/>
      <stop offset="100%" stop-color="#ffffff" stop-opacity="0.06"/>
    </linearGradient>
    <filter id="shadow" x="-20%" y="-20%" width="140%" height="140%">
      <feDropShadow dx="0" dy="18" stdDeviation="20" flood-color="#000000" flood-opacity="0.35"/>
    </filter>
    <style>
      .title{font-family:Inter,Segoe UI,Arial,sans-serif;font-size:68px;font-weight:900;fill:#fff;letter-spacing:-2px}
      .subtitle{font-family:Inter,Segoe UI,Arial,sans-serif;font-size:30px;font-weight:500;fill:#c8d8d4}
      .kicker{font-family:Inter,Segoe UI,Arial,sans-serif;font-size:25px;font-weight:900;fill:#f5b041;letter-spacing:7px}
      .cardTitle{font-family:Inter,Segoe UI,Arial,sans-serif;font-size:38px;font-weight:900;fill:#fff}
      .cardText{font-family:Inter,Segoe UI,Arial,sans-serif;font-size:25px;font-weight:500;fill:#dbe9e5}
      .small{font-family:Inter,Segoe UI,Arial,sans-serif;font-size:21px;font-weight:700;fill:#f5b041}
      .zeroone{font-family:Inter,Segoe UI,Arial,sans-serif;font-size:46px;font-weight:900;fill:#00b894}
      .caption{font-family:Inter,Segoe UI,Arial,sans-serif;font-size:25px;font-weight:800;fill:#fff}
    </style>
  </defs>
  <rect width="1600" height="900" fill="url(#bg)"/>
  <circle cx="1290" cy="120" r="230" fill="#f5b041" opacity="0.10"/>
  <circle cx="250" cy="780" r="260" fill="#00b894" opacity="0.10"/>
  <text x="80" y="95" class="kicker">MATERIALES ELECTRÓNICOS</text>
  <text x="80" y="175" class="title">Conductores, aislantes y semiconductores</text>
  <text x="80" y="225" class="subtitle">La diferencia clave no es “tener electricidad”, sino poder controlar su paso.</text>
  <g transform="translate(80,300)" filter="url(#shadow)">
    <rect width="440" height="430" rx="36" fill="url(#card)" stroke="#ffffff" stroke-opacity="0.18"/>
    <text x="42" y="70" class="cardTitle">Conductor</text>
    <text x="42" y="115" class="small">La corriente pasa con facilidad</text>
    <path d="M65 230 C140 150, 240 310, 355 210" fill="none" stroke="#f5b041" stroke-width="16" stroke-linecap="round"/>
    <circle cx="90" cy="210" r="18" fill="#f5b041"/>
    <circle cx="175" cy="205" r="18" fill="#f5b041"/>
    <circle cx="260" cy="245" r="18" fill="#f5b041"/>
    <circle cx="340" cy="215" r="18" fill="#f5b041"/>
    <text x="42" y="345" class="cardText">Ejemplos: cobre, aluminio, oro.</text>
    <text x="42" y="383" class="cardText">Se usa para cables y contactos.</text>
  </g>
  <g transform="translate(580,300)" filter="url(#shadow)">
    <rect width="440" height="430" rx="36" fill="url(#card)" stroke="#00b894" stroke-opacity="0.9"/>
    <text x="42" y="70" class="cardTitle">Semiconductor</text>
    <text x="42" y="115" class="small">La corriente se puede controlar</text>
    <rect x="85" y="177" width="270" height="92" rx="22" fill="#0b4c46" stroke="#00b894" stroke-width="5"/>
    <text x="150" y="237" class="zeroone">0 / 1</text>
    <path d="M82 310 L358 310" stroke="#00b894" stroke-width="12" stroke-linecap="round" stroke-dasharray="24 18"/>
    <text x="42" y="345" class="cardText">Ejemplo: silicio.</text>
    <text x="42" y="383" class="cardText">Base para transistores y chips.</text>
  </g>
  <g transform="translate(1080,300)" filter="url(#shadow)">
    <rect width="440" height="430" rx="36" fill="url(#card)" stroke="#ffffff" stroke-opacity="0.18"/>
    <text x="42" y="70" class="cardTitle">Aislante</text>
    <text x="42" y="115" class="small">La corriente casi no pasa</text>
    <rect x="105" y="185" width="230" height="90" rx="18" fill="#f5f1df"/>
    <rect x="130" y="170" width="28" height="120" rx="10" fill="#b87948"/>
    <rect x="200" y="170" width="28" height="120" rx="10" fill="#b87948"/>
    <rect x="270" y="170" width="28" height="120" rx="10" fill="#b87948"/>
    <line x1="95" y1="230" x2="345" y2="230" stroke="#2a1a10" stroke-width="10" stroke-linecap="round"/>
    <text x="42" y="345" class="cardText">Ejemplos: plástico, vidrio, cerámica.</text>
    <text x="42" y="383" class="cardText">Se usa para proteger y separar.</text>
  </g>
  <g transform="translate(210,785)">
    <rect width="1180" height="72" rx="36" fill="#00b894" opacity="0.18" stroke="#00b894" stroke-opacity="0.55"/>
    <text x="55" y="47" class="caption">Un semiconductor permite construir decisiones: bloquear corriente o dejarla pasar. Esa es la base del transistor.</text>
  </g>
</svg>
